<svg width="119" height="53" viewBox="0 0 119 53" fill="none" xmlns="http://www.w3.org/2000/svg">
<path d="M24 6.48V46" stroke="#979797" stroke-width="8" stroke-linecap="round"/>
<path d="M43.52 26L4 26" stroke="#979797" stroke-width="8" stroke-linecap="round"/>
<path fill-rule="evenodd" clip-rule="evenodd" d="M88.2414 0C82.0449 0 76.9045 4.86079 76.9045 10.9987C76.9045 11.9507 77.0282 12.8721 77.2603 13.7493C75.5459 12.7463 73.5409 12.1721 71.4111 12.1721C65.2146 12.1721 60.0743 17.0329 60.0743 23.1708C60.0743 27.0652 62.1436 30.4455 65.2391 32.3963C63.0058 33.5975 60.5921 35.4563 58.9975 38.1501C58.411 39.141 58.0453 40.4694 57.7953 41.7191C57.5358 43.0167 57.3636 44.4334 57.248 45.7242C57.1318 47.0205 57.0701 48.221 57.0372 49.0958C57.0208 49.534 57.0115 49.8927 57.0064 50.1433C57.0038 50.2686 57.0021 50.3671 57.0012 50.4351C57.0035 50.352 57 50.5445 57 50.5445C56.9926 51.5771 57.8236 52.4202 58.8561 52.4276C59.8886 52.4351 60.7316 51.6006 60.7392 50.5681L60.7394 50.5525L60.7402 50.4858L60.7448 50.2204C60.7496 49.9881 60.7583 49.6507 60.7739 49.236C60.8051 48.4049 60.8636 47.2718 60.9723 46.0578C61.0816 44.8383 61.2389 43.5679 61.462 42.4524C61.6947 41.289 61.9647 40.4783 62.2153 40.0548C63.42 38.0196 65.3619 36.5293 67.2985 35.5382C69.2865 34.5207 70.9858 34.1695 71.4926 34.1695C71.6305 34.1695 72.1025 34.2359 72.8806 34.4971C73.6133 34.7431 74.497 35.1212 75.4186 35.6336C77.2843 36.671 79.1523 38.1721 80.3021 40.0709C80.5848 40.5378 80.8892 41.3831 81.1685 42.5489C81.4378 43.6735 81.6498 44.9465 81.8125 46.1633C81.9745 47.3752 82.0839 48.5036 82.1528 49.3304C82.1872 49.743 82.2113 50.0785 82.2268 50.3093L82.2436 50.5733L82.2475 50.6396L82.2486 50.6589C82.3043 51.6899 83.1851 52.4805 84.2161 52.425C85.2472 52.3694 86.0378 51.4855 85.9822 50.4545L85.9819 50.4484L85.9807 50.4272L85.9761 50.3491L85.9577 50.0597C85.941 49.8111 85.9154 49.4551 85.8791 49.0198C85.8067 48.1509 85.6912 46.9581 85.5188 45.6679C85.347 44.3826 85.115 42.9725 84.8049 41.6779C84.5047 40.4245 84.0942 39.1143 83.5006 38.1341C81.9527 35.5778 79.5997 33.7146 77.4436 32.4828C80.2703 30.7576 82.2706 27.8524 82.6733 24.4439C83.8005 23.6058 85.0159 22.9928 86.0877 22.5859C87.2766 22.1345 88.1249 21.9974 88.3941 21.9974C88.5768 21.9974 89.3124 22.1301 90.4375 22.6026C91.4874 23.0435 92.6986 23.7065 93.8202 24.5819C94.1951 27.6776 95.7859 30.428 98.1111 32.1803C98.092 32.19 98.0729 32.1998 98.0538 32.2095C95.7247 33.4015 93.1361 35.3125 91.4565 38.1501C90.8699 39.141 90.5042 40.4694 90.2543 41.7191C89.9948 43.0167 89.8225 44.4334 89.7069 45.7242C89.5908 47.0205 89.529 48.221 89.4962 49.0958C89.4797 49.534 89.4705 49.8927 89.4653 50.1433C89.4627 50.2686 89.4611 50.3671 89.4602 50.4351L89.4593 50.5139L89.4591 50.5354L89.459 50.5445C89.4515 51.5771 90.2825 52.4202 91.315 52.4276C92.3475 52.4351 93.1906 51.6006 93.1982 50.5681L93.1983 50.5525L93.1991 50.4858L93.2038 50.2204C93.2085 49.9881 93.2172 49.6507 93.2328 49.236C93.264 48.4049 93.3225 47.2718 93.4313 46.0578C93.5405 44.8383 93.6978 43.5679 93.9209 42.4524C94.1536 41.289 94.4236 40.4783 94.6743 40.0548C95.879 38.0196 97.8208 36.5293 99.7574 35.5382C101.745 34.5207 103.445 34.1695 103.951 34.1695C104.089 34.1695 104.561 34.2359 105.34 34.4971C106.072 34.7431 106.956 35.1212 107.878 35.6336C109.743 36.671 111.611 38.1721 112.761 40.0709C113.044 40.5378 113.348 41.3831 113.627 42.5489C113.897 43.6735 114.109 44.9465 114.271 46.1633C114.433 47.3752 114.543 48.5036 114.612 49.3304C114.646 49.743 114.67 50.0785 114.686 50.3093L114.703 50.5733L114.706 50.6396L114.707 50.6589C114.763 51.6899 115.644 52.4805 116.675 52.425C117.706 52.3694 118.497 51.4855 118.441 50.4545L118.441 50.4484L118.44 50.4272L118.435 50.3491L118.417 50.0597C118.4 49.8111 118.374 49.4551 118.338 49.0198C118.266 48.1509 118.15 46.9581 117.978 45.6679C117.806 44.3826 117.574 42.9725 117.264 41.6779C116.964 40.4245 116.553 39.1143 115.96 38.1341C114.362 35.4953 111.906 33.5951 109.695 32.3655C109.691 32.3636 109.687 32.3616 109.684 32.3596C112.498 30.3673 114.305 26.9427 114.305 23.1708C114.305 17.2426 109.841 12.1721 104.02 12.1721C102.307 12.1721 100.711 12.6113 99.3126 13.3824C99.4864 12.6163 99.5782 11.8189 99.5782 10.9987C99.5782 4.86079 94.4378 0 88.2414 0ZM118.441 50.4545C118.441 50.4545 118.441 50.4574 116.574 50.558L118.441 50.4545ZM80.6438 10.9987C80.6438 7.05294 83.9807 3.73927 88.2414 3.73927C92.502 3.73927 95.8389 7.05294 95.8389 10.9987C95.8389 14.9445 92.502 18.2582 88.2414 18.2582C83.9807 18.2582 80.6438 14.9445 80.6438 10.9987ZM71.4111 15.9114C67.1504 15.9114 63.8136 19.225 63.8136 23.1708C63.8136 27.1166 67.1504 30.4303 71.4111 30.4303C75.6718 30.4303 79.0087 27.1166 79.0087 23.1708C79.0087 19.225 75.6718 15.9114 71.4111 15.9114ZM97.4745 23.1708C97.4745 19.0153 100.546 15.9114 104.02 15.9114C107.495 15.9114 110.566 19.0153 110.566 23.1708C110.566 27.3263 107.495 30.4303 104.02 30.4303C100.546 30.4303 97.4745 27.3263 97.4745 23.1708Z" fill="#48A0AF"/>
</svg>
