<svg viewBox="0 0 22 22" fill="none" xmlns="http://www.w3.org/2000/svg">
<path fill-rule="evenodd" clip-rule="evenodd" d="M0.5 1.5C0.5 1.22386 0.723858 1 1 1H3.40557C3.64614 1 3.85261 1.17131 3.89699 1.40775L4.31007 3.60822H21C21.1441 3.60822 21.2812 3.6704 21.3762 3.77881C21.4711 3.88723 21.5147 4.03134 21.4956 4.17419L20.3302 12.9293C20.2971 13.1778 20.0852 13.3633 19.8346 13.3633H6.14131L6.612 15.8707H18.5909C18.8671 15.8707 19.0909 16.0945 19.0909 16.3707C19.0909 16.6468 18.8671 16.8707 18.5909 16.8707H6.19712C5.95656 16.8707 5.75009 16.6994 5.70571 16.4629L2.9907 2H1C0.723858 2 0.5 1.77614 0.5 1.5ZM5.95359 12.3633H9.59375V8.8172H5.2879L5.95359 12.3633ZM10.5938 12.3633H14.3643V8.8172H10.5938V12.3633ZM15.3643 12.3633H19.3967L19.8688 8.8172H15.3643V12.3633ZM20.0019 7.8172L20.4291 4.60822H15.3643V7.8172H20.0019ZM14.3643 4.60822H10.5938V7.8172H14.3643V4.60822ZM9.59375 4.60822H4.49779L5.10018 7.8172H9.59375V4.60822Z" />
<path d="M6.82009 21C7.54593 21 8.13433 20.3764 8.13433 19.6072C8.13433 18.8379 7.54593 18.2143 6.82009 18.2143C6.09426 18.2143 5.50586 18.8379 5.50586 19.6072C5.50586 20.3764 6.09426 21 6.82009 21Z" />
<path d="M19.3995 19.6072C19.3995 20.3764 18.8111 21 18.0852 21C17.3594 21 16.771 20.3764 16.771 19.6072C16.771 18.8379 17.3594 18.2143 18.0852 18.2143C18.8111 18.2143 19.3995 18.8379 19.3995 19.6072Z" />
</svg>
