<svg width="24" height="25" viewBox="0 0 24 25" fill="none" xmlns="http://www.w3.org/2000/svg">
<path fill-rule="evenodd" clip-rule="evenodd" d="M12 24.5C18.6274 24.5 24 19.1274 24 12.5C24 5.87258 18.6274 0.5 12 0.5C5.37258 0.5 0 5.87258 0 12.5C0 19.1274 5.37258 24.5 12 24.5Z" fill="white"/>
<path d="M11.9999 8.81614L14.6667 7.21076V16.7077L11.9999 18.313V8.81614Z" fill="#287ABD"/>
<path d="M12 18.313L9.33301 16.7077V7.21076L12 8.81614V18.313Z" fill="#4EA9E4"/>
<path d="M17.3333 18.313L14.6667 16.7077V7.21076L17.3333 8.81614V18.313Z" fill="#F7BA4B"/>
<path d="M6.66675 8.81638V8.81614V18.313L9.33329 16.7077V7.21076L6.66675 8.81614V8.81638Z" fill="#F7BA4B"/>
<path d="M4 7.21076V16.7077L6.66667 18.313V8.81614L4 7.21076Z" fill="#4EA9E4"/>
<path d="M14.6668 16.7077L17.3332 18.3131L12.0001 21.5238L6.66675 18.3131L9.33305 16.7077L11.9998 18.3131L14.6668 16.7077Z" fill="#F0AA3A"/>
<path d="M20.0001 7.21076V16.7077L17.3334 18.313V8.81614L20.0001 7.21076Z" fill="#287ABD"/>
<path d="M14.6667 7.2108L11.9998 8.81615L9.33309 7.2108L6.66667 8.81615L4 7.21076L9.33309 4L11.9998 5.60538L14.6667 4L20 7.21076L17.3331 8.81615L14.6667 7.2108Z" fill="#3490CD"/>
</svg>
