<svg viewBox="0 0 16 14" fill="none" xmlns="http://www.w3.org/2000/svg">
<path fill-rule="evenodd" clip-rule="evenodd" d="M7.99996 0.5392C6.47274 0.5392 5.20583 1.73721 5.20583 3.25C5.20583 3.48464 5.23631 3.71171 5.29351 3.92792C4.87097 3.68073 4.3768 3.5392 3.85189 3.5392C2.32467 3.5392 1.05775 4.73721 1.05775 6.25C1.05775 7.20983 1.56777 8.04295 2.33069 8.52375C1.78028 8.81983 1.18538 9.27794 0.79237 9.94188C0.647811 10.1861 0.557675 10.5135 0.496074 10.8215C0.43211 11.1413 0.389665 11.4905 0.361163 11.8086C0.33254 12.1281 0.317317 12.424 0.309225 12.6396C0.305171 12.7476 0.302887 12.836 0.301614 12.8978L0.300339 12.9697C0.300919 12.9492 0.300061 12.9967 0.300061 12.9967C0.29822 13.2512 0.503029 13.4589 0.757515 13.4608C1.01198 13.4626 1.21977 13.2569 1.22164 13.0025L1.22168 12.9986L1.22188 12.9822L1.22302 12.9168C1.2242 12.8595 1.22634 12.7764 1.23018 12.6742C1.23786 12.4693 1.25228 12.1901 1.27909 11.8909C1.30601 11.5903 1.34479 11.2772 1.39978 11.0022C1.45713 10.7155 1.52367 10.5157 1.58544 10.4113C1.88237 9.90971 2.36097 9.5424 2.83826 9.29813C3.32825 9.04736 3.74705 8.9608 3.87196 8.9608C3.90596 8.9608 4.02229 8.97716 4.21406 9.04154C4.39464 9.10216 4.61244 9.19536 4.83959 9.32165C5.29944 9.57733 5.75982 9.94729 6.0432 10.4153C6.11289 10.5304 6.18791 10.7387 6.25674 11.026C6.32313 11.3032 6.37537 11.6169 6.41546 11.9169C6.45539 12.2155 6.48236 12.4936 6.49934 12.6974C6.50781 12.7991 6.51376 12.8818 6.51757 12.9387L6.52172 13.0038L6.52268 13.0201L6.52294 13.0249C6.53667 13.279 6.75377 13.4738 7.00788 13.4601C7.262 13.4464 7.45686 13.2286 7.44316 12.9745L7.44308 12.973L7.44279 12.9677L7.44166 12.9485L7.43711 12.8772C7.43301 12.8159 7.4267 12.7282 7.41776 12.6209C7.39991 12.4067 7.37144 12.1127 7.32894 11.7947C7.28659 11.478 7.22941 11.1304 7.15299 10.8114C7.07899 10.5024 6.97783 10.1795 6.83154 9.93792C6.45003 9.30788 5.87008 8.84867 5.3387 8.54508C6.03536 8.11988 6.52837 7.40384 6.62762 6.56377C6.90544 6.35722 7.20498 6.20613 7.46915 6.10584C7.76218 5.99458 7.97127 5.9608 8.03762 5.9608C8.08263 5.9608 8.26393 5.99351 8.54124 6.10996C8.79999 6.21861 9.09852 6.38203 9.37496 6.59777C9.46734 7.36076 9.85943 8.03865 10.4325 8.47054C10.4278 8.47293 10.4231 8.47532 10.4184 8.47773C9.84435 8.77152 9.20635 9.24251 8.79237 9.94188C8.64781 10.1861 8.55767 10.5135 8.49607 10.8215C8.43211 11.1413 8.38967 11.4905 8.36116 11.8086C8.33254 12.1281 8.31732 12.424 8.30923 12.6396C8.30517 12.7476 8.30289 12.836 8.30161 12.8978C8.30098 12.9287 8.30059 12.9529 8.30036 12.9697L8.30013 12.9891L8.30008 12.9944L8.30006 12.9967C8.29822 13.2512 8.50303 13.4589 8.75752 13.4608C9.01198 13.4626 9.21977 13.2569 9.22164 13.0025L9.22168 12.9986L9.22188 12.9822L9.22302 12.9168C9.2242 12.8595 9.22634 12.7764 9.23018 12.6742C9.23786 12.4693 9.25228 12.1901 9.27909 11.8909C9.30601 11.5903 9.34479 11.2772 9.39978 11.0022C9.45713 10.7155 9.52366 10.5157 9.58544 10.4113C9.88237 9.90971 10.361 9.5424 10.8383 9.29813C11.3283 9.04736 11.7471 8.9608 11.872 8.9608C11.906 8.9608 12.0223 8.97716 12.2141 9.04154C12.3946 9.10216 12.6124 9.19536 12.8396 9.32165C13.2994 9.57733 13.7598 9.94729 14.0432 10.4153C14.1129 10.5304 14.1879 10.7387 14.2567 11.026C14.3231 11.3032 14.3754 11.6169 14.4155 11.9169C14.4554 12.2155 14.4824 12.4936 14.4993 12.6974C14.5078 12.7991 14.5138 12.8818 14.5176 12.9387L14.5217 13.0038L14.5227 13.0201L14.5229 13.0249C14.5367 13.279 14.7538 13.4738 15.0079 13.4601C15.262 13.4464 15.4569 13.2286 15.4432 12.9745L15.4431 12.973L15.4428 12.9677L15.4417 12.9485L15.4371 12.8772C15.433 12.8159 15.4267 12.7282 15.4178 12.6209C15.3999 12.4067 15.3714 12.1127 15.3289 11.7947C15.2866 11.478 15.2294 11.1304 15.153 10.8114C15.079 10.5024 14.9778 10.1795 14.8315 9.93792C14.4377 9.28756 13.8325 8.81922 13.2874 8.51618C13.2866 8.5157 13.2857 8.51521 13.2848 8.51472C13.9783 8.02368 14.4238 7.17963 14.4238 6.25C14.4238 4.78891 13.3235 3.5392 11.8889 3.5392C11.4667 3.5392 11.0734 3.64746 10.7286 3.83749C10.7715 3.64869 10.7941 3.45215 10.7941 3.25C10.7941 1.73721 9.52718 0.5392 7.99996 0.5392ZM15.4432 12.9745C15.4432 12.9745 15.4432 12.9752 14.9831 13L15.4432 12.9745ZM6.12743 3.25C6.12743 2.2775 6.94985 1.4608 7.99996 1.4608C9.05007 1.4608 9.87249 2.2775 9.87249 3.25C9.87249 4.2225 9.05007 5.0392 7.99996 5.0392C6.94985 5.0392 6.12743 4.2225 6.12743 3.25ZM3.85189 4.4608C2.80178 4.4608 1.97935 5.2775 1.97935 6.25C1.97935 7.2225 2.80178 8.0392 3.85189 8.0392C4.902 8.0392 5.72442 7.2225 5.72442 6.25C5.72442 5.2775 4.902 4.4608 3.85189 4.4608ZM10.2756 6.25C10.2756 5.22581 11.0325 4.4608 11.8889 4.4608C12.7453 4.4608 13.5022 5.22581 13.5022 6.25C13.5022 7.27419 12.7453 8.0392 11.8889 8.0392C11.0325 8.0392 10.2756 7.27419 10.2756 6.25Z" />
</svg>
