<svg width="8" height="8" viewBox="0 0 8 8" fill="none" xmlns="http://www.w3.org/2000/svg">
<path fill-rule="evenodd" clip-rule="evenodd" d="M6.73062 0.446434C6.92588 0.251172 7.24247 0.251172 7.43773 0.446434C7.63299 0.641697 7.63299 0.958279 7.43773 1.15354L4.71267 3.8786L7.64446 6.8104C7.83973 7.00566 7.83973 7.32224 7.64446 7.5175C7.4492 7.71276 7.13262 7.71276 6.93736 7.5175L4.00556 4.58571L1.07377 7.5175C0.878506 7.71276 0.561924 7.71276 0.366661 7.5175C0.171399 7.32224 0.171399 7.00566 0.366661 6.8104L3.29846 3.8786L0.573396 1.15354C0.378134 0.958279 0.378134 0.641697 0.573396 0.446434C0.768658 0.251172 1.08524 0.251172 1.2805 0.446434L4.00556 3.17149L6.73062 0.446434Z" />
</svg>
