<svg width="353" height="205" viewBox="0 0 353 205" fill="none" xmlns="http://www.w3.org/2000/svg">
<path d="M16.1 204.407C10.1 204.407 4.8 203.707 0 199.007L6.2 192.807C9.3 195.907 13.4 196.407 16.3 196.407C19.6 196.407 23 195.307 23 192.507C23 190.607 22 189.307 19 189.007L13 188.407C6.2 187.707 2 184.807 2 177.807C2 170.007 8.9 165.707 16.6 165.707C22.5 165.707 27.4 166.707 31.1 170.107L25.3 176.007C23.1 174.007 19.8 173.507 16.5 173.507C12.7 173.507 11.1 175.207 11.1 177.107C11.1 178.507 11.7 180.107 15 180.407L21 181.007C28.5 181.707 32.3 185.707 32.3 192.107C32.1 200.407 25 204.407 16.1 204.407Z" fill="#4E2817"/>
<path d="M48.6 204.007C40.9 204.007 37.6 198.607 37.6 193.207V174.507H33.6V167.207H37.6V156.007H47V167.207H53.7V174.407H47V192.607C47 194.807 48 196.007 50.3 196.007H53.7V204.007H48.6V204.007Z" fill="#4E2817"/>
<path d="M57.9 159.707V152.007H67.6V159.707H57.9ZM58.1 204.007V166.207H67.5V204.007H58.1Z" fill="#4E2817"/>
<path d="M88.9 204.407C81.3 204.407 72 200.307 72 185.007C72 169.707 81.4 165.707 88.9 165.707C94.1 165.707 98.1 167.307 101.4 170.807L95 177.207C93 175.107 91.4 174.207 88.9 174.207C86.6 174.207 84.9 175.007 83.5 176.707C82 178.507 81.4 181.107 81.4 185.107C81.4 189.107 82.1 191.707 83.5 193.507C84.9 195.207 86.6 196.007 88.9 196.007C91.4 196.007 93 195.107 95 193.007L101.4 199.307C98 202.807 94.1 204.407 88.9 204.407Z" fill="#4E2817"/>
<path d="M127.4 204.007L118.1 188.207L114.1 192.707V204.007H104.7V152.307H114.1V181.607L126.7 166.107H138.1L124.6 181.407L139.1 204.007H127.4V204.007Z" fill="#4E2817"/>
<path d="M147 188.007C147 192.907 150 196.407 155.3 196.407C159.4 196.407 161.5 195.207 163.9 192.807L169.6 198.407C165.8 202.207 162 204.407 155.2 204.407C146.3 204.407 137.7 200.307 137.7 185.007C137.7 172.707 144.4 165.707 154.2 165.707C164.7 165.707 170.7 173.407 170.7 183.807V188.007H147ZM160.5 177.507C159.5 175.207 157.4 173.607 154.2 173.607C151 173.607 148.9 175.307 147.9 177.507C147.3 178.907 147.1 179.907 147 181.607H161.4C161.3 179.907 161.1 178.907 160.5 177.507Z" fill="#4E2817"/>
<path d="M195.7 176.507C194.2 175.007 193 174.207 190.7 174.207C187.8 174.207 184.6 176.407 184.6 181.207V204.007H175.2V166.207H184.4V169.807C186.2 167.607 189.9 165.707 193.9 165.707C197.6 165.707 200.2 166.607 202.8 169.307L195.7 176.507Z" fill="#4E2817"/>
<path d="M245.3 165.707C240.6 165.707 237.2 167.207 234 170.507C231.6 167.207 228.2 165.707 224 165.707C220.5 165.707 217 167.107 214.6 169.607V166.207H205.4V204.007H214.8V181.107C214.8 175.907 218.1 174.207 221.1 174.207C224.1 174.207 227.3 175.907 227.3 181.107V204.007H236.7V180.907C236.7 176.007 240.1 174.207 243 174.207C246 174.207 249.2 175.907 249.2 181.107V204.007H258.6V179.807C258.6 175.707 257.5 172.107 254.5 169.007C252.5 167.007 249.1 165.707 245.3 165.707Z" fill="#F26922"/>
<path d="M286.3 189.007C286.3 194.207 283 195.907 280 195.907C277 195.907 273.8 194.207 273.8 189.007V166.207H264.4V190.407C264.4 194.507 265.2 198.107 268.2 201.107C270.3 203.207 273.4 204.407 277.1 204.407C280.6 204.407 284.1 203.107 286.5 200.507V204.007H295.7V166.207H286.3V189.007Z" fill="#F26922"/>
<path d="M311.2 192.607V152.307H301.8V193.207C301.8 198.607 305.1 204.007 312.8 204.007H318.2V196.007H314.6C312.2 196.007 311.2 194.907 311.2 192.607Z" fill="#F26922"/>
<path d="M352.9 183.807C352.9 173.407 346.9 165.707 336.4 165.707C326.6 165.707 319.9 172.707 319.9 185.007C319.9 200.307 328.5 204.407 337.4 204.407C344.2 204.407 347.9 202.307 351.8 198.407L346.1 192.807C343.7 195.207 341.7 196.407 337.5 196.407C332.2 196.407 329.2 192.807 329.2 188.007H352.9V183.807V183.807ZM329.2 181.607C329.3 179.907 329.5 178.907 330.1 177.507C331.1 175.207 333.2 173.607 336.4 173.607C339.6 173.607 341.7 175.307 342.7 177.507C343.3 178.907 343.5 179.907 343.6 181.607H329.2Z" fill="#F26922"/>
<path fill-rule="evenodd" clip-rule="evenodd" d="M193.9 141.207C192.6 141.807 190.8 141.707 188.9 141.807C187.3 141.807 185 141.907 184.1 141.007C183.6 140.507 183.4 139.607 183.4 139.007C183.4 138.307 183.5 137.507 183.7 136.707C183.9 135.807 184.1 134.607 183.7 134.207C183.3 133.607 181.8 133.907 181.1 133.407C180.3 132.907 180.1 131.907 179.8 130.607C179.7 130.207 179.5 129.907 179.4 129.607C179.2 127.707 179.8 125.207 180.2 123.307C180.7 121.307 181.2 119.407 181.6 117.507C182.1 114.707 182.3 111.507 182.1 108.507C182 107.007 181.8 105.807 182 104.507C182.2 103.307 182.7 102.307 183 101.107C183.1 100.707 183 100.307 183.1 99.9069C183.1 99.5069 183.4 99.2069 183.4 98.9069C183.4 98.1069 183.2 97.1069 183.1 96.1069C182.9 93.4069 183.1 89.7069 183.3 87.4069C183.4 86.6069 183.7 85.7069 183.2 85.3069C180.4 85.3069 177.9 85.8069 175.3 86.1069C168.4 87.0069 159.7 87.1069 153 85.8069C152.4 85.7069 151.7 85.7069 151.1 85.5069C146.4 84.4069 142 82.4069 138.6 79.7069C138.1 79.3069 137.5 78.8069 136.9 78.4069C136.3 78.0069 135.7 77.3069 135.2 77.1069C132.5 75.8069 128.9 77.3069 127.8 79.0069C127.4 79.7069 127 80.6069 126.6 81.4069C126.2 82.2069 125.8 83.0069 125.5 83.8069C123.7 87.9069 121.7 91.8069 119.9 95.9069C118.9 98.3069 117.7 100.907 116.9 103.507C115.3 109.107 116.8 116.707 118.1 122.007C118.2 122.507 118.5 123.007 118.7 123.507C119.1 124.807 120 126.507 121 127.407C121.5 127.907 122.4 128.107 123 128.607C123.7 129.207 124.3 130.507 124.9 131.607C125.1 132.007 125.5 132.607 125.8 133.107C126.5 134.307 126.7 135.407 125.4 136.107C124.4 136.607 122.9 136.807 121.5 136.907C120.9 137.107 121.1 137.907 120.7 138.307C120.5 138.507 119.5 138.907 119 139.107C117.2 139.607 114 139.607 112.6 139.107C111.9 138.807 111.1 138.307 110.9 137.707C110.5 136.607 111.4 135.107 110.6 134.307C110.2 133.907 109.5 134.007 108.8 133.707C107.8 133.307 106.9 132.407 106.5 131.207C105.4 128.407 106.1 124.107 106 120.707C106 119.707 105.8 118.607 105.8 117.507C105.7 115.507 105.3 113.507 105 111.507C104.9 110.507 104.6 109.707 104.4 108.807C104.1 107.407 103.8 105.807 103.4 104.407C102.9 102.807 102.9 101.307 103.5 99.9069C103.6 99.5069 104 99.2069 104.3 98.7069C104.6 97.9069 104.7 97.0069 104.7 96.3069C104.5 95.9069 103.5 96.2069 103.3 95.8069C102.7 91.4069 102.1 87.1069 101.7 82.5069C101.6 81.0069 101.6 79.4069 101.4 77.8069C101.1 74.7069 101.4 71.5069 101.1 68.5069C101 67.0069 100.6 65.6069 100.4 64.2069C99.9 60.2069 98.8 55.1069 99.6 50.9069C100.1 48.2069 101.1 46.1069 102.6 44.1069C103.7 42.7069 104.8 41.4069 106.1 40.2069C107.3 39.0069 108.7 37.9069 110.2 36.8069C111.1 36.1069 112.1 35.3069 113.2 34.9069C115.5 33.8069 118.5 32.9069 121.7 32.8069C124.9 32.7069 128.5 32.6069 131.6 33.2069C134.6 33.7069 137.6 34.3069 140.6 34.9069C143.5 35.5069 146.3 36.3069 149.1 37.0069C149.5 37.1069 149.8 37.3069 150.1 37.4069C151 37.6069 152 37.7069 152.9 38.0069C155.5 38.7069 158.8 39.0069 161.9 39.0069C165.3 39.0069 168.3 38.9069 171.1 38.2069C171.5 38.1069 171.8 37.9069 172.3 37.7069C172.7 37.5069 173.3 37.6069 173.7 37.4069C174 37.3069 174.3 37.0069 174.6 36.9069C176.2 36.1069 177.6 35.4069 179 34.4069C180.1 33.6069 181.1 32.9069 182.6 32.3069C183.3 32.0069 183.9 31.7069 184.6 31.5069C186 31.0069 187.6 30.6069 188.7 29.9069C190.4 28.8069 191.7 27.2069 193.1 26.0069C194.6 24.7069 196.1 23.5069 197.7 22.2069C200.9 19.7069 204.1 17.4069 207.1 15.0069C208.6 13.8069 210.3 12.6069 212.1 11.6069C215.6 9.60692 219.1 7.30692 224.1 6.90692C226.1 6.80692 228.1 6.70693 230.1 7.00693C230.6 7.10693 231.4 7.40693 231.9 7.30693C232.4 7.20693 232.8 6.40692 233.2 5.70692C233.9 4.40692 234.5 3.50692 235.1 1.90692C235.5 0.906919 235.3 -0.0930748 236.3 0.00692522C237.3 0.00692522 237.2 2.70692 237.2 3.70692C237.3 4.90692 237.1 6.50693 237.3 7.30693C237.4 7.90693 238.2 8.70692 239 8.70692C239.6 8.70692 239.9 8.30692 240.4 7.90692C240.9 7.60692 241.4 7.40692 241.8 7.10692C242.6 6.50692 243.6 5.50692 244.4 4.60692C245.1 3.90692 246.2 2.30692 247.3 2.40692C249.3 2.60692 247.3 5.50693 246.9 6.50693C245.9 8.80693 244.9 10.4069 243.7 12.6069C243.2 13.5069 242.1 14.7069 242.1 15.6069C242.1 16.2069 242.6 16.7069 242.9 17.3069C243 17.6069 243.1 18.0069 243.2 18.3069C243.9 19.9069 244.4 22.1069 244.9 23.9069C245.4 25.4069 245.7 27.1069 246.3 28.6069C246.8 30.1069 247.6 31.5069 248.2 32.9069C248.4 33.3069 248.4 33.8069 248.5 34.1069C249.8 37.3069 251 41.0069 252.5 44.1069C253.1 45.4069 254 46.9069 254 48.8069C254 50.8069 252.9 51.8069 252 53.3069C251.5 54.1069 250.8 55.3069 250.1 55.6069C249.6 55.8069 248.9 55.6069 248.4 55.7069C247.6 55.8069 247.1 56.3069 246.4 56.4069C244.5 56.6069 242.8 55.2069 242.3 53.8069C242.1 53.3069 242.2 52.7069 242.1 52.1069C241.7 49.9069 240.6 48.8069 239 47.3069C238 46.4069 237.2 45.7069 236 45.0069C234.2 44.1069 232.3 43.5069 230.4 42.5069C229.7 42.1069 228.9 41.8069 228.3 41.9069C227.3 42.1069 226.3 43.7069 225.5 44.7069C220.6 51.1069 216.3 57.7069 211.6 64.0069C208.5 68.2069 205.1 72.4069 202.6 77.2069C202 78.4069 201.6 79.8069 201.1 81.2069C200.6 82.6069 200.4 84.1069 199.9 85.5069C198.1 90.7069 197.5 97.1069 195.8 102.607C195.6 103.207 195.6 103.807 195.4 104.507C194.6 107.307 193.9 110.507 193 113.507C192.3 115.707 192.1 118.707 192 121.607C191.9 124.307 191.8 128.207 192.8 129.907C193.3 130.807 195.2 131.207 195.9 132.107C196.4 132.807 196.7 134.107 197.2 134.907C197.5 135.507 198.5 136.807 198.4 137.707C198.3 138.407 197.7 138.907 197.2 139.107C196.6 139.407 195.8 139.207 195.2 139.507C194.3 140.007 194.6 140.807 193.9 141.207Z" fill="#4E2817"/>
</svg>
