<svg width="14" height="14" viewBox="0 0 14 14" fill="none" xmlns="http://www.w3.org/2000/svg">
<path fill-rule="evenodd" clip-rule="evenodd" d="M7 14C10.866 14 14 10.866 14 7C14 3.13401 10.866 0 7 0C3.13401 0 0 3.13401 0 7C0 10.866 3.13401 14 7 14Z" fill="#FF6161"/>
<path d="M6.432 8.42L6.24 4.328L6.204 2.96H7.596L7.548 4.328L7.356 8.42H6.432ZM6.9 11.144C6.644 11.144 6.428 11.056 6.252 10.88C6.084 10.704 6 10.48 6 10.208C6 9.936 6.084 9.712 6.252 9.536C6.428 9.36 6.644 9.272 6.9 9.272C7.156 9.272 7.368 9.36 7.536 9.536C7.704 9.712 7.788 9.936 7.788 10.208C7.788 10.48 7.704 10.704 7.536 10.88C7.368 11.056 7.156 11.144 6.9 11.144Z" fill="white"/>
</svg>
