<svg viewBox="0 0 22 22" fill="none" xmlns="http://www.w3.org/2000/svg">
<path d="M11.4373 1.70954C11.1817 1.50502 10.8184 1.50502 10.5627 1.70954L0.687671 9.60959C0.47204 9.7821 0.437079 10.0967 0.609584 10.3124C0.782089 10.528 1.09673 10.563 1.31237 10.3905L11 2.64034L20.6877 10.3905C20.9033 10.563 21.2179 10.528 21.3905 10.3124C21.563 10.0967 21.528 9.7821 21.3124 9.60959L11.4373 1.70954Z" />
<path d="M4.5 10C4.5 9.72386 4.27614 9.5 4 9.5C3.72386 9.5 3.5 9.72386 3.5 10V19.8C3.5 20.1866 3.8134 20.5 4.2 20.5H17.8C18.1866 20.5 18.5 20.1866 18.5 19.8V10C18.5 9.72386 18.2761 9.5 18 9.5C17.7239 9.5 17.5 9.72386 17.5 10V19.5H4.5V10Z" />
</svg>
