<svg viewBox="0 0 22 22" fill="none" xmlns="http://www.w3.org/2000/svg">
<path fill-rule="evenodd" clip-rule="evenodd" d="M6 1C6.27614 1 6.5 1.29848 6.5 1.66667V4.33333C6.5 4.39088 6.49453 4.44673 6.48425 4.5H7.51575C7.50547 4.44673 7.5 4.39088 7.5 4.33333V1.66667C7.5 1.29848 7.72386 1 8 1C8.27614 1 8.5 1.29848 8.5 1.66667V4.33333C8.5 4.39088 8.49453 4.44673 8.48425 4.5H9.51575C9.50547 4.44673 9.5 4.39088 9.5 4.33333V1.66667C9.5 1.29848 9.72386 1 10 1C10.2761 1 10.5 1.29848 10.5 1.66667V4.33333C10.5 4.39088 10.4945 4.44673 10.4842 4.5H11.5158C11.5055 4.44673 11.5 4.39088 11.5 4.33333V1.66667C11.5 1.29848 11.7239 1 12 1C12.2761 1 12.5 1.29848 12.5 1.66667V4.33333C12.5 4.39088 12.4945 4.44673 12.4842 4.5H13.5158C13.5055 4.44673 13.5 4.39088 13.5 4.33333V1.66667C13.5 1.29848 13.7239 1 14 1C14.2761 1 14.5 1.29848 14.5 1.66667V4.33333C14.5 4.39088 14.4945 4.44673 14.4842 4.5H15.5158C15.5055 4.44673 15.5 4.39088 15.5 4.33333V1.66667C15.5 1.29848 15.7239 1 16 1C16.2761 1 16.5 1.29848 16.5 1.66667V4.33333C16.5 4.39088 16.4945 4.44673 16.4842 4.5H16.5C17.0523 4.5 17.5 4.94772 17.5 5.5V5.51575C17.5533 5.50547 17.6091 5.5 17.6667 5.5H20.3333C20.7015 5.5 21 5.72386 21 6C21 6.27614 20.7015 6.5 20.3333 6.5H17.6667C17.6091 6.5 17.5533 6.49453 17.5 6.48425V7.51575C17.5533 7.50547 17.6091 7.5 17.6667 7.5H20.3333C20.7015 7.5 21 7.72386 21 8C21 8.27614 20.7015 8.5 20.3333 8.5H17.6667C17.6091 8.5 17.5533 8.49453 17.5 8.48425V9.51575C17.5533 9.50547 17.6091 9.5 17.6667 9.5H20.3333C20.7015 9.5 21 9.72386 21 10C21 10.2761 20.7015 10.5 20.3333 10.5H17.6667C17.6091 10.5 17.5533 10.4945 17.5 10.4842V11.5158C17.5533 11.5055 17.6091 11.5 17.6667 11.5H20.3333C20.7015 11.5 21 11.7239 21 12C21 12.2761 20.7015 12.5 20.3333 12.5H17.6667C17.6091 12.5 17.5533 12.4945 17.5 12.4842V13.5158C17.5533 13.5055 17.6091 13.5 17.6667 13.5H20.3333C20.7015 13.5 21 13.7239 21 14C21 14.2761 20.7015 14.5 20.3333 14.5H17.6667C17.6091 14.5 17.5533 14.4945 17.5 14.4842V15.5158C17.5533 15.5055 17.6091 15.5 17.6667 15.5H20.3333C20.7015 15.5 21 15.7239 21 16C21 16.2761 20.7015 16.5 20.3333 16.5H17.6667C17.6091 16.5 17.5533 16.4945 17.5 16.4842V16.5C17.5 17.0523 17.0523 17.5 16.5 17.5H16.4842C16.4945 17.5533 16.5 17.6091 16.5 17.6667V20.3333C16.5 20.7015 16.2761 21 16 21C15.7239 21 15.5 20.7015 15.5 20.3333V17.6667C15.5 17.6091 15.5055 17.5533 15.5158 17.5H14.4842C14.4945 17.5533 14.5 17.6091 14.5 17.6667V20.3333C14.5 20.7015 14.2761 21 14 21C13.7239 21 13.5 20.7015 13.5 20.3333V17.6667C13.5 17.6091 13.5055 17.5533 13.5158 17.5H12.4842C12.4945 17.5533 12.5 17.6091 12.5 17.6667V20.3333C12.5 20.7015 12.2761 21 12 21C11.7239 21 11.5 20.7015 11.5 20.3333V17.6667C11.5 17.6091 11.5055 17.5533 11.5158 17.5H10.4842C10.4945 17.5533 10.5 17.6091 10.5 17.6667V20.3333C10.5 20.7015 10.2761 21 10 21C9.72386 21 9.5 20.7015 9.5 20.3333V17.6667C9.5 17.6091 9.50547 17.5533 9.51575 17.5H8.48425C8.49453 17.5533 8.5 17.6091 8.5 17.6667V20.3333C8.5 20.7015 8.27614 21 8 21C7.72386 21 7.5 20.7015 7.5 20.3333V17.6667C7.5 17.6091 7.50547 17.5533 7.51575 17.5H6.48425C6.49453 17.5533 6.5 17.6091 6.5 17.6667V20.3333C6.5 20.7015 6.27614 21 6 21C5.72386 21 5.5 20.7015 5.5 20.3333V17.6667C5.5 17.6091 5.50547 17.5533 5.51575 17.5H5.5C4.94772 17.5 4.5 17.0523 4.5 16.5V16.4842C4.44673 16.4945 4.39088 16.5 4.33333 16.5H1.66667C1.29848 16.5 1 16.2761 1 16C1 15.7239 1.29848 15.5 1.66667 15.5H4.33333C4.39088 15.5 4.44673 15.5055 4.5 15.5158V14.4842C4.44673 14.4945 4.39088 14.5 4.33333 14.5H1.66667C1.29848 14.5 1 14.2761 1 14C1 13.7239 1.29848 13.5 1.66667 13.5H4.33333C4.39088 13.5 4.44673 13.5055 4.5 13.5158V12.4842C4.44673 12.4945 4.39088 12.5 4.33333 12.5H1.66667C1.29848 12.5 1 12.2761 1 12C1 11.7239 1.29848 11.5 1.66667 11.5H4.33333C4.39088 11.5 4.44673 11.5055 4.5 11.5158V10.4842C4.44673 10.4945 4.39088 10.5 4.33333 10.5H1.66667C1.29848 10.5 1 10.2761 1 10C1 9.72386 1.29848 9.5 1.66667 9.5H4.33333C4.39088 9.5 4.44673 9.50547 4.5 9.51575V8.48425C4.44673 8.49453 4.39088 8.5 4.33333 8.5H1.66667C1.29848 8.5 1 8.27614 1 8C1 7.72386 1.29848 7.5 1.66667 7.5H4.33333C4.39088 7.5 4.44673 7.50547 4.5 7.51575V6.48425C4.44673 6.49453 4.39088 6.5 4.33333 6.5H1.66667C1.29848 6.5 1 6.27614 1 6C1 5.72386 1.29848 5.5 1.66667 5.5H4.33333C4.39088 5.5 4.44673 5.50547 4.5 5.51575V5.5C4.5 4.94772 4.94772 4.5 5.5 4.5H5.51575C5.50547 4.44673 5.5 4.39088 5.5 4.33333V1.66667C5.5 1.29848 5.72386 1 6 1ZM16.5 5.5H5.5V16.5H16.5V5.5Z" />
</svg>
