<svg width="19" height="20" viewBox="0 0 19 20" fill="none" xmlns="http://www.w3.org/2000/svg">
<path fill-rule="evenodd" clip-rule="evenodd" d="M2 0.5C1.17157 0.5 0.5 1.17157 0.5 2V18C0.5 18.8284 1.17157 19.5 2 19.5H14C14.8284 19.5 15.5 18.8284 15.5 18V15C15.5 14.7239 15.2761 14.5 15 14.5C14.7239 14.5 14.5 14.7239 14.5 15V18C14.5 18.2761 14.2761 18.5 14 18.5H2C1.72386 18.5 1.5 18.2761 1.5 18V2C1.5 1.72386 1.72386 1.5 2 1.5H14C14.2761 1.5 14.5 1.72386 14.5 2V5C14.5 5.27614 14.7239 5.5 15 5.5C15.2761 5.5 15.5 5.27614 15.5 5V2C15.5 1.17157 14.8284 0.5 14 0.5H2ZM16.0606 6.81643C15.8653 6.62117 15.5487 6.62117 15.3535 6.81643C15.1582 7.01169 15.1582 7.32827 15.3535 7.52354L17.3299 9.49999H9.5C9.22386 9.49999 9 9.72384 9 9.99999C9 10.2761 9.22386 10.5 9.5 10.5H17.3299L15.3535 12.4764C15.1582 12.6717 15.1582 12.9883 15.3535 13.1835C15.5487 13.3788 15.8653 13.3788 16.0606 13.1835L18.889 10.3551C18.987 10.2571 19.0359 10.1285 19.0355 9.99999C19.0359 9.8715 18.987 9.74289 18.889 9.64486L16.0606 6.81643Z" />
</svg>
