<svg viewBox="0 0 22 21" fill="none" xmlns="http://www.w3.org/2000/svg">
<path fill-rule="evenodd" clip-rule="evenodd" d="M9.64806 1.641C9.6176 1.30905 9.86358 1.01591 10.1958 0.988257L13.7716 0.6906C14.303 0.646358 14.6238 1.26565 14.281 1.67421L13.5068 2.59684L14.0637 3.06417C15.6022 4.35509 15.581 6.9131 14.0165 8.77764L13.577 9.30143C13.4256 9.48189 13.1697 9.42121 13.1715 9.20525C13.1715 9.20525 13.4594 8.31016 13.4688 7.16747C13.4783 6.02477 12.9507 5.58207 12.5074 5.21012L11.8071 4.62247L11.033 5.545C10.6902 5.95355 10.0246 5.74524 9.97585 5.21414L9.64806 1.641ZM1 1C0.723858 1 0.5 1.22386 0.5 1.5C0.5 1.77614 0.723858 2 1 2H2.9907L5.70571 16.4629C5.75009 16.6994 5.95656 16.8707 6.19712 16.8707H18.5909C18.8671 16.8707 19.0909 16.6468 19.0909 16.3707C19.0909 16.0945 18.8671 15.8707 18.5909 15.8707H6.612L6.1413 13.3633H19.8347C20.0854 13.3633 20.2973 13.1777 20.3304 12.9292L21.4957 4.17412C21.5321 3.90039 21.3397 3.64896 21.066 3.61252C20.7923 3.57609 20.5408 3.76846 20.5044 4.04219L19.3969 12.3633H5.95358L3.89699 1.40775C3.85261 1.17131 3.64614 1 3.40557 1H1ZM6.82009 21C7.54593 21 8.13433 20.3763 8.13433 19.6071C8.13433 18.8378 7.54593 18.2142 6.82009 18.2142C6.09426 18.2142 5.50586 18.8378 5.50586 19.6071C5.50586 20.3763 6.09426 21 6.82009 21ZM18.0852 21C18.8111 21 19.3995 20.3763 19.3995 19.6071C19.3995 18.8378 18.8111 18.2142 18.0852 18.2142C17.3594 18.2142 16.771 18.8378 16.771 19.6071C16.771 20.3763 17.3594 21 18.0852 21Z"/>
</svg>
